<?xml version="1.0" standalone="no"?><!DOCTYPE svg PUBLIC "-//W3C//DTD SVG 1.1//EN" "http://www.w3.org/Graphics/SVG/1.1/DTD/svg11.dtd"><svg t="1631068300740" class="icon" viewBox="0 0 1024 1024" version="1.1" xmlns="http://www.w3.org/2000/svg" p-id="3214" xmlns:xlink="http://www.w3.org/1999/xlink" width="200" height="200"><defs><style type="text/css"></style></defs><path d="M880 928a120 120 0 0 1-120-120V696a119.952 119.952 0 0 1 88-115.552V496a336 336 0 0 0-672 0v84.448A119.952 119.952 0 0 1 264 696v112a120 120 0 0 1-240 0V696a119.952 119.952 0 0 1 88-115.552V496a400 400 0 0 1 800 0v84.448A119.952 119.952 0 0 1 1000 696v112a120 120 0 0 1-120 120zM88 696v112a56 56 0 0 0 112 0V696a56 56 0 0 0-112 0z m848 0a56 56 0 0 0-112 0v112a56 56 0 0 0 112 0V696zM432 600a32 32 0 0 1 32 32v240a32 32 0 0 1-64 0V632a32 32 0 0 1 32-32z m160 80a32 32 0 0 1 32 32v80a32 32 0 0 1-64 0V712a32 32 0 0 1 32-32z" fill="#00c7d9" p-id="3215"></path></svg>