<?xml version="1.0" standalone="no"?><!DOCTYPE svg PUBLIC "-//W3C//DTD SVG 1.1//EN" "http://www.w3.org/Graphics/SVG/1.1/DTD/svg11.dtd"><svg t="1631285068370" class="icon" viewBox="0 0 1024 1024" version="1.1" xmlns="http://www.w3.org/2000/svg" p-id="2195" xmlns:xlink="http://www.w3.org/1999/xlink" width="200" height="200"><defs><style type="text/css"></style></defs><path d="M960.2 839.8L547 124.1c-7.1-12.4-20.4-20-34.6-20s-27.5 7.6-34.6 20L64.5 839.8c-7.1 12.4-7.1 27.6 0 40 7.1 12.4 20.4 20 34.6 20h826.4c14.3 0 27.5-7.6 34.6-20 7.2-12.4 7.2-27.6 0.1-40z m-791.8-20l343.9-595.7 343.9 595.7H168.4z" p-id="2196"></path><path d="M473 388.6v235.5c0 22.1 17.9 40 40 40s40-17.9 40-40V388.6c0-22.1-17.9-40-40-40s-40 17.9-40 40z" p-id="2197"></path><path d="M465.030989 731.655343a47.2 47.2 0 1 0 93.182237-15.113927 47.2 47.2 0 1 0-93.182237 15.113927Z" p-id="2198"></path></svg>